<?xml version="1.0" encoding="utf-8"?>
<!-- Generator: Adobe Illustrator 16.0.0, SVG Export Plug-In . SVG Version: 6.00 Build 0)  -->
<!DOCTYPE svg PUBLIC "-//W3C//DTD SVG 1.1//EN" "http://www.w3.org/Graphics/SVG/1.1/DTD/svg11.dtd">
<svg version="1.1" id="Layer_1" xmlns="http://www.w3.org/2000/svg" xmlns:xlink="http://www.w3.org/1999/xlink" x="0px" y="0px"
	 width="496.519px" height="443.704px" viewBox="0 0 496.519 443.704" enable-background="new 0 0 496.519 443.704"
	 xml:space="preserve">
<g>
	<defs>
		<path id="SVGID_1_" d="M45.85,61.885v135.934c0,9.658,7.834,17.492,17.494,17.492H226.52c9.655,0,17.494-7.832,17.494-17.492
			V61.885c0-9.657-7.834-17.49-17.494-17.49H63.344C53.689,44.395,45.85,52.227,45.85,61.885z M60.85,61.885
			c0-1.371,1.12-2.49,2.494-2.49H226.52c1.376,0,2.494,1.118,2.494,2.49v135.934c0,1.371-1.12,2.492-2.494,2.492H63.344
			c-1.376,0-2.494-1.119-2.494-2.492V61.885z M25.85,24.395h238.164v210.916H25.85V24.395z"/>
	</defs>
	<clipPath id="SVGID_2_">
		<use xlink:href="#SVGID_1_"  overflow="visible"/>
	</clipPath>
	<g clip-path="url(#SVGID_2_)">
		<defs>
			<path id="SVGID_3_" d="M53.35,61.885c0-5.517,4.482-9.99,9.994-9.99H226.52c5.52,0,9.994,4.477,9.994,9.99v135.934
				c0,5.52-4.482,9.992-9.994,9.992H63.344c-5.52,0-9.994-4.479-9.994-9.992V61.885z"/>
		</defs>
		<clipPath id="SVGID_4_">
			<use xlink:href="#SVGID_3_"  overflow="visible"/>
		</clipPath>
		<path clip-path="url(#SVGID_4_)" fill-rule="evenodd" clip-rule="evenodd" fill="#FFFFFF" d="M53.35,61.885
			c0-5.517,4.482-9.99,9.994-9.99H226.52c5.52,0,9.994,4.477,9.994,9.99v135.934c0,5.52-4.482,9.992-9.994,9.992H63.344
			c-5.52,0-9.994-4.479-9.994-9.992V61.885z"/>
	</g>
</g>
<g>
	<defs>
		<path id="SVGID_5_" d="M53.35,61.885c0-5.517,4.482-9.99,9.994-9.99H226.52c5.52,0,9.994,4.477,9.994,9.99v135.934
			c0,5.52-4.482,9.992-9.994,9.992H63.344c-5.52,0-9.994-4.479-9.994-9.992V61.885z"/>
	</defs>
	<clipPath id="SVGID_6_">
		<use xlink:href="#SVGID_5_"  overflow="visible"/>
	</clipPath>
	<path clip-path="url(#SVGID_6_)" fill="none" stroke="#6B798D" stroke-width="30" stroke-miterlimit="10" d="M53.35,61.886
		c0-5.518,4.482-9.991,9.994-9.991H226.52c5.52,0,9.994,4.477,9.994,9.991V197.82c0,5.518-4.482,9.99-9.994,9.99H63.344
		c-5.52,0-9.994-4.479-9.994-9.99V61.886z"/>
</g>
<g>
	<defs>
		<path id="SVGID_7_" d="M37.576,53.553v135.935c0,9.657,7.834,17.489,17.494,17.489h163.175c9.655,0,17.494-7.832,17.494-17.489
			V53.553c0-9.657-7.834-17.491-17.494-17.491H55.07C45.415,36.062,37.576,43.894,37.576,53.553z M52.576,53.553
			c0-1.372,1.12-2.491,2.494-2.491h163.175c1.376,0,2.494,1.118,2.494,2.491v135.935c0,1.37-1.12,2.489-2.494,2.489H55.07
			c-1.376,0-2.494-1.118-2.494-2.489V53.553z M17.576,16.062h238.164v210.915H17.576V16.062z"/>
	</defs>
	<clipPath id="SVGID_8_">
		<use xlink:href="#SVGID_7_"  overflow="visible"/>
	</clipPath>
	<g clip-path="url(#SVGID_8_)">
		<defs>
			<path id="SVGID_9_" d="M45.076,53.553c0-5.518,4.482-9.991,9.994-9.991h163.175c5.52,0,9.994,4.477,9.994,9.991v135.935
				c0,5.516-4.482,9.989-9.994,9.989H55.07c-5.52,0-9.994-4.477-9.994-9.989V53.553z"/>
		</defs>
		<clipPath id="SVGID_10_">
			<use xlink:href="#SVGID_9_"  overflow="visible"/>
		</clipPath>
		<path clip-path="url(#SVGID_10_)" fill-rule="evenodd" clip-rule="evenodd" fill="#FFFFFF" d="M45.076,53.553
			c0-5.518,4.482-9.991,9.994-9.991h163.175c5.52,0,9.994,4.477,9.994,9.991v135.935c0,5.516-4.482,9.989-9.994,9.989H55.07
			c-5.52,0-9.994-4.477-9.994-9.989V53.553z"/>
	</g>
</g>
<g>
	<defs>
		<path id="SVGID_11_" d="M45.076,53.553c0-5.518,4.482-9.991,9.994-9.991h163.175c5.52,0,9.994,4.477,9.994,9.991v135.935
			c0,5.516-4.482,9.989-9.994,9.989H55.07c-5.52,0-9.994-4.477-9.994-9.989V53.553z"/>
	</defs>
	<clipPath id="SVGID_12_">
		<use xlink:href="#SVGID_11_"  overflow="visible"/>
	</clipPath>
	<path clip-path="url(#SVGID_12_)" fill="none" stroke="#EAEAEA" stroke-width="30" stroke-miterlimit="10" d="M45.076,53.553
		c0-5.518,4.482-9.991,9.994-9.991h163.175c5.52,0,9.994,4.477,9.994,9.991v135.933c0,5.518-4.482,9.991-9.994,9.991H55.07
		c-5.52,0-9.994-4.477-9.994-9.991V53.553z"/>
</g>
<g>
	<defs>
		<ellipse id="SVGID_13_" cx="180.473" cy="86.238" rx="15.105" ry="15.129"/>
	</defs>
	<clipPath id="SVGID_14_">
		<use xlink:href="#SVGID_13_"  overflow="visible"/>
	</clipPath>
	<rect x="160.368" y="66.109" clip-path="url(#SVGID_14_)" fill="#EACA44" width="40.21" height="40.258"/>
</g>
<g>
	<defs>
		<polygon id="SVGID_15_" points="121.859,101.367 81.146,158.244 162.572,158.244 		"/>
	</defs>
	<clipPath id="SVGID_16_">
		<use xlink:href="#SVGID_15_"  overflow="visible"/>
	</clipPath>
	<rect x="76.146" y="96.367" clip-path="url(#SVGID_16_)" fill="#2F8B5C" width="91.426" height="66.877"/>
</g>
<polygon fill="none" stroke="#2F8B5C" stroke-width="15" stroke-linecap="round" stroke-linejoin="round" stroke-miterlimit="10" points="
	121.859,101.367 81.146,158.244 162.572,158.244 "/>
<g>
	<defs>
		<polygon id="SVGID_17_" points="162.572,122.683 132.953,158.244 192.155,158.244 		"/>
	</defs>
	<clipPath id="SVGID_18_">
		<use xlink:href="#SVGID_17_"  overflow="visible"/>
	</clipPath>
	<rect x="127.953" y="117.683" clip-path="url(#SVGID_18_)" fill="#3AAD73" width="69.202" height="45.561"/>
</g>
<polygon fill="none" stroke="#3AAD73" stroke-width="15" stroke-linejoin="round" stroke-miterlimit="10" points="162.572,122.683 
	132.953,158.244 192.155,158.244 "/>
<g>
	<defs>
		<path id="SVGID_19_" d="M143.582,307.445c-0.958-5.436,2.676-10.621,8.118-11.58l99.767-17.592
			c5.442-0.959,10.63,2.67,11.589,8.105l11.627,65.938c0.958,5.438-2.676,10.621-8.118,11.582l-99.767,17.592
			c-5.442,0.959-10.631-2.672-11.589-8.105L143.582,307.445z"/>
	</defs>
	<clipPath id="SVGID_20_">
		<use xlink:href="#SVGID_19_"  overflow="visible"/>
	</clipPath>
	
		<rect x="143.474" y="281.409" transform="matrix(-0.9848 0.1736 -0.1736 -0.9848 472.3705 618.4369)" clip-path="url(#SVGID_20_)" fill="#6B798D" width="131.317" height="96.945"/>
</g>
<g>
	<defs>
		<path id="SVGID_21_" d="M142.788,300.939c-0.958-5.438,2.676-10.621,8.118-11.582l99.767-17.592
			c5.441-0.959,10.63,2.672,11.589,8.107l11.626,65.938c0.958,5.438-2.676,10.621-8.118,11.58l-99.767,17.592
			c-5.441,0.959-10.63-2.67-11.588-8.105L142.788,300.939z"/>
	</defs>
	<clipPath id="SVGID_22_">
		<use xlink:href="#SVGID_21_"  overflow="visible"/>
	</clipPath>
	
		<rect x="142.68" y="274.903" transform="matrix(-0.9848 0.1736 -0.1736 -0.9848 469.6636 605.6619)" clip-path="url(#SVGID_22_)" fill="#FFFFFF" width="131.316" height="96.945"/>
</g>
<g>
	<defs>
		
			<rect id="SVGID_23_" x="145.163" y="299.953" transform="matrix(-0.9848 0.1736 -0.1736 -0.9848 462.1911 577.7725)" width="121.317" height="18.304"/>
	</defs>
	<clipPath id="SVGID_24_">
		<use xlink:href="#SVGID_23_"  overflow="visible"/>
	</clipPath>
	
		<rect x="140.163" y="294.952" transform="matrix(-0.9848 0.1736 -0.1736 -0.9848 462.1909 577.7727)" clip-path="url(#SVGID_24_)" fill="#4F5D73" width="131.316" height="28.305"/>
</g>
<g>
	<defs>
		
			<ellipse id="SVGID_25_" transform="matrix(0.1737 0.9848 -0.9848 0.1737 545.2105 28.2821)" cx="255.752" cy="339.022" rx="6.101" ry="6.066"/>
	</defs>
	<clipPath id="SVGID_26_">
		<use xlink:href="#SVGID_25_"  overflow="visible"/>
	</clipPath>
	
		<rect x="244.686" y="327.921" transform="matrix(-0.9848 0.1737 -0.1737 -0.9848 566.4977 628.4748)" clip-path="url(#SVGID_26_)" fill="#E0995E" width="22.132" height="22.203"/>
</g>
<g>
	<defs>
		
			<ellipse id="SVGID_27_" transform="matrix(0.1737 0.9848 -0.9848 0.1737 530.5885 53.6065)" cx="233.351" cy="342.972" rx="6.101" ry="6.066"/>
	</defs>
	<clipPath id="SVGID_28_">
		<use xlink:href="#SVGID_27_"  overflow="visible"/>
	</clipPath>
	
		<rect x="222.285" y="331.871" transform="matrix(-0.9848 0.1736 -0.1736 -0.9848 522.6955 640.2289)" clip-path="url(#SVGID_28_)" fill="#E0995E" width="22.131" height="22.201"/>
</g>
<g>
	<defs>
		
			<ellipse id="SVGID_29_" transform="matrix(0.1737 0.9848 -0.9848 0.1737 515.9684 78.9325)" cx="210.95" cy="346.923" rx="6.101" ry="6.066"/>
	</defs>
	<clipPath id="SVGID_30_">
		<use xlink:href="#SVGID_29_"  overflow="visible"/>
	</clipPath>
	
		<rect x="199.884" y="335.822" transform="matrix(-0.9848 0.1737 -0.1737 -0.9848 478.9462 651.9366)" clip-path="url(#SVGID_30_)" fill="#E0995E" width="22.132" height="22.203"/>
</g>
<g>
	<defs>
		<path id="SVGID_31_" d="M165.18,397.074c-0.473,2.686-3.03,4.48-5.712,4.008L33.18,378.814c-2.679-0.473-4.475-3.037-4.002-5.721
			l12.818-72.697c0.474-2.689,3.038-4.479,5.717-4.006l126.288,22.268c2.683,0.473,4.471,3.029,3.997,5.721L165.18,397.074z"/>
	</defs>
	<clipPath id="SVGID_32_">
		<use xlink:href="#SVGID_31_"  overflow="visible"/>
	</clipPath>
	
		<rect x="29.538" y="301.889" transform="matrix(-0.9848 -0.1736 0.1736 -0.9848 145.0468 710.1624)" clip-path="url(#SVGID_32_)" fill="#6B798D" width="148.1" height="93.695"/>
</g>
<g>
	<defs>
		<path id="SVGID_33_" d="M167.012,390.914c-0.474,2.686-3.03,4.48-5.712,4.008L35.012,372.654c-2.68-0.473-4.475-3.037-4.002-5.721
			l12.818-72.695c0.474-2.691,3.038-4.48,5.717-4.008l126.288,22.268c2.682,0.473,4.471,3.029,3.997,5.719L167.012,390.914z"/>
	</defs>
	<clipPath id="SVGID_34_">
		<use xlink:href="#SVGID_33_"  overflow="visible"/>
	</clipPath>
	
		<rect x="31.37" y="295.728" transform="matrix(-0.9848 -0.1737 0.1737 -0.9848 149.7483 698.2524)" clip-path="url(#SVGID_34_)" fill="#5FD4AF" width="148.1" height="93.695"/>
</g>
<g>
	<defs>
		
			<rect id="SVGID_35_" x="46.233" y="310.607" transform="matrix(-0.9848 -0.1737 0.1737 -0.9848 149.7522 698.2602)" width="118.378" height="63.944"/>
	</defs>
	<clipPath id="SVGID_36_">
		<use xlink:href="#SVGID_35_"  overflow="visible"/>
	</clipPath>
	
		<rect x="41.233" y="305.606" transform="matrix(-0.9848 -0.1737 0.1737 -0.9848 149.7529 698.2582)" clip-path="url(#SVGID_36_)" fill="#FFFFFF" width="128.378" height="73.944"/>
</g>
<g>
	<defs>
		<path id="SVGID_37_" d="M47.539,353.049c-0.277-0.338-0.436-0.781-0.36-1.211l6.682-37.891c0.075-0.426,0.337-0.797,0.703-1.021
			c0.378-0.223,0.827-0.262,1.237-0.133c0.324,0.1,0.561,0.189,0.813,0.232c3.21,0.566,6.273-1.582,6.839-4.793
			c0.006-0.035,0.023-0.367,0.029-0.4c0.046-0.41,0.257-0.785,0.585-1.039c0.331-0.252,0.751-0.352,1.162-0.279l90.297,15.922
			c0.41,0.072,0.771,0.311,0.994,0.66c0.225,0.35,0.294,0.775,0.197,1.176c-0.006,0.033-0.072,0.268-0.088,0.295
			c-0.593,3.301,1.556,6.369,4.766,6.936c0.252,0.045,0.505,0.041,0.753,0.051c0.43,0.021,0.887,0.217,1.159,0.555
			c0.279,0.338,0.431,0.775,0.356,1.199l-6.682,37.893c-0.075,0.428-0.333,0.801-0.704,1.025c-0.371,0.223-0.824,0.273-1.234,0.139
			c-0.322-0.111-0.56-0.195-0.812-0.238c-3.21-0.566-6.279,1.586-6.845,4.797c0,0.027-0.017,0.363-0.022,0.393
			c-0.047,0.416-0.258,0.791-0.588,1.041c-0.328,0.25-0.748,0.354-1.159,0.279l-90.297-15.922c-0.41-0.072-0.771-0.313-0.996-0.658
			c-0.223-0.348-0.293-0.773-0.195-1.18c0.005-0.031,0.072-0.258,0.083-0.293c0.591-3.295-1.551-6.367-4.761-6.934
			c-0.252-0.045-0.505-0.047-0.759-0.053C48.257,353.58,47.806,353.381,47.539,353.049z"/>
	</defs>
	<clipPath id="SVGID_38_">
		<use xlink:href="#SVGID_37_"  overflow="visible"/>
	</clipPath>
	
		<rect x="44.672" y="309.041" transform="matrix(-0.9848 -0.1736 0.1736 -0.9848 149.7504 698.25)" clip-path="url(#SVGID_38_)" fill="#5FD4AF" width="121.496" height="67.066"/>
</g>
<g>
	<defs>
		<path id="SVGID_39_" d="M130.967,347.08c-0.852,4.832,2.385,9.459,7.209,10.309c4.832,0.854,9.452-2.391,10.304-7.221
			c0.852-4.83-2.382-9.453-7.213-10.305C136.444,339.012,131.819,342.25,130.967,347.08z"/>
	</defs>
	<clipPath id="SVGID_40_">
		<use xlink:href="#SVGID_39_"  overflow="visible"/>
	</clipPath>
	
		<rect x="125.832" y="334.727" transform="matrix(-0.9848 -0.1737 0.1737 -0.9848 216.7646 716.2227)" clip-path="url(#SVGID_40_)" fill="#FFFFFF" width="27.784" height="27.797"/>
</g>
<g>
	<defs>
		<path id="SVGID_41_" d="M101.71,363.643c11.624,2.049,22.708-5.709,24.761-17.355c2.051-11.631-5.709-22.729-17.332-24.777
			c-11.626-2.049-22.718,5.723-24.77,17.354C82.316,350.512,90.084,361.592,101.71,363.643z"/>
	</defs>
	<clipPath id="SVGID_42_">
		<use xlink:href="#SVGID_41_"  overflow="visible"/>
	</clipPath>
	
		<rect x="79.046" y="316.183" transform="matrix(-0.9848 -0.1737 0.1737 -0.9848 149.7524 698.2522)" clip-path="url(#SVGID_42_)" fill="#FFFFFF" width="52.751" height="52.784"/>
</g>
<g>
	<defs>
		<path id="SVGID_43_" d="M62.362,334.982c-0.852,4.832,2.38,9.459,7.207,10.311c4.829,0.852,9.454-2.393,10.306-7.221
			c0.852-4.832-2.387-9.455-7.215-10.307C67.833,326.914,63.214,330.152,62.362,334.982z"/>
	</defs>
	<clipPath id="SVGID_44_">
		<use xlink:href="#SVGID_43_"  overflow="visible"/>
	</clipPath>
	
		<rect x="57.226" y="322.631" transform="matrix(-0.9848 -0.1736 0.1736 -0.9848 82.7221 680.2953)" clip-path="url(#SVGID_44_)" fill="#FFFFFF" width="27.783" height="27.797"/>
</g>
<path fill="#6EDABD" d="M104.773,351.916l-0.369,2.094c-0.022,0.123-0.061,0.242-0.116,0.355c-0.055,0.115-0.125,0.211-0.21,0.291
	c-0.085,0.082-0.182,0.141-0.291,0.178s-0.229,0.043-0.358,0.021c-0.13-0.023-0.24-0.07-0.33-0.143
	c-0.089-0.072-0.16-0.162-0.212-0.266c-0.052-0.105-0.085-0.221-0.098-0.346c-0.013-0.125-0.009-0.25,0.013-0.373l0.369-2.094
	l-5.225-0.922c-0.247-0.043-0.471-0.133-0.673-0.268s-0.371-0.297-0.506-0.49c-0.136-0.193-0.232-0.408-0.289-0.645
	s-0.064-0.477-0.021-0.723l2.981-16.908c0.043-0.246,0.132-0.471,0.267-0.674c0.134-0.201,0.298-0.369,0.492-0.506
	c0.193-0.135,0.408-0.23,0.644-0.289c0.236-0.057,0.477-0.063,0.723-0.02l5.226,0.922l0.33-1.869
	c0.023-0.131,0.062-0.252,0.117-0.365s0.125-0.211,0.21-0.291c0.085-0.08,0.182-0.139,0.291-0.178
	c0.109-0.037,0.229-0.043,0.358-0.021c0.123,0.023,0.229,0.07,0.319,0.143c0.089,0.072,0.16,0.16,0.212,0.264
	c0.052,0.105,0.086,0.221,0.103,0.348c0.017,0.125,0.013,0.254-0.01,0.385l-0.329,1.867c0.594,0.111,1.182,0.25,1.764,0.412
	c0.582,0.162,1.128,0.363,1.641,0.602c0.512,0.238,0.977,0.521,1.396,0.85s0.764,0.713,1.035,1.156s0.455,0.951,0.551,1.525
	s0.081,1.225-0.047,1.951c-0.176,0.998-0.507,1.824-0.993,2.477c-0.485,0.65-1.14,1.154-1.965,1.51
	c0.456,0.299,0.844,0.645,1.167,1.037s0.579,0.818,0.77,1.279s0.309,0.949,0.355,1.465c0.047,0.516,0.021,1.049-0.075,1.596
	c-0.089,0.506-0.243,0.996-0.46,1.469c-0.218,0.475-0.493,0.914-0.826,1.32c-0.333,0.408-0.722,0.771-1.166,1.092
	c-0.445,0.32-0.938,0.58-1.481,0.775c-0.542,0.197-1.131,0.324-1.765,0.377c-0.634,0.055-1.307,0.02-2.019-0.107L104.773,351.916z
	 M103.713,348.564l1.037-5.883l-3.418-0.602l-1.037,5.881L103.713,348.564z M105.301,339.561l0.941-5.338l-3.418-0.602l-0.941,5.338
	L105.301,339.561z M106.352,342.965l-1.037,5.883l1.119,0.197c0.547,0.096,1.046,0.109,1.496,0.041
	c0.449-0.068,0.842-0.213,1.177-0.434c0.335-0.219,0.612-0.512,0.832-0.875c0.219-0.363,0.373-0.791,0.459-1.283
	c0.096-0.549,0.058-1.02-0.116-1.412c-0.174-0.395-0.431-0.729-0.771-1s-0.743-0.488-1.208-0.652
	c-0.465-0.162-0.938-0.287-1.417-0.371L106.352,342.965z M111.062,337.805c0.113-0.645,0.113-1.162-0.002-1.553
	s-0.32-0.697-0.615-0.922c-0.295-0.227-0.666-0.395-1.111-0.51c-0.446-0.113-0.942-0.219-1.49-0.314l-0.941,5.338
	c1.292,0.199,2.269,0.129,2.933-0.213S110.907,338.68,111.062,337.805z"/>
<g>
	<defs>
		<path id="SVGID_45_" d="M300.476,29.616c0-5.524,4.483-10.002,10.002-10.002h166.957c5.523,0,10.002,4.474,10.002,10.002v54.878
			c0,5.524-4.482,10.002-10.002,10.002H310.478c-5.524,0-10.002-4.474-10.002-10.002V29.616z"/>
	</defs>
	<clipPath id="SVGID_46_">
		<use xlink:href="#SVGID_45_"  overflow="visible"/>
	</clipPath>
	<rect x="295.476" y="14.614" clip-path="url(#SVGID_46_)" fill="#6B798D" width="196.96" height="84.882"/>
</g>
<g>
	<defs>
		<path id="SVGID_47_" d="M293.49,21.96c0-5.523,4.483-10.002,10.002-10.002h166.956c5.524,0,10.002,4.475,10.002,10.002v54.878
			c0,5.523-4.482,10.001-10.002,10.001l-166.956,0c-5.524,0-10.002-4.473-10.002-10.001V21.96z"/>
	</defs>
	<clipPath id="SVGID_48_">
		<use xlink:href="#SVGID_47_"  overflow="visible"/>
	</clipPath>
	<rect x="288.49" y="6.958" clip-path="url(#SVGID_48_)" fill="#FBB330" width="196.96" height="84.881"/>
</g>
<g>
	<defs>
		<ellipse id="SVGID_49_" cx="451.472" cy="65.78" rx="3.869" ry="3.856"/>
	</defs>
	<clipPath id="SVGID_50_">
		<use xlink:href="#SVGID_49_"  overflow="visible"/>
	</clipPath>
	<rect x="442.603" y="56.923" clip-path="url(#SVGID_50_)" fill="#FFFFFF" width="17.737" height="17.713"/>
</g>
<g>
	<defs>
		<ellipse id="SVGID_51_" cx="425.136" cy="65.78" rx="3.869" ry="3.856"/>
	</defs>
	<clipPath id="SVGID_52_">
		<use xlink:href="#SVGID_51_"  overflow="visible"/>
	</clipPath>
	<rect x="416.267" y="56.923" clip-path="url(#SVGID_52_)" fill="#FFFFFF" width="17.737" height="17.713"/>
</g>
<g>
	<defs>
		<path id="SVGID_53_" d="M432.164,46.098l0.443,5.162h-6.899l-1.441-5.162H432.164z M422.357,38.917h9.19l0.439,5.129h-8.108
			L422.357,38.917z M433.22,58.38h-5.527l-1.412-5.068h6.504L433.22,58.38z M444.583,38.917l-0.44,5.129h-10.087l-0.441-5.129
			H444.583z M445.414,53.313h5.944l-1.508,5.068h-4.873L445.414,53.313z M446.034,46.098h7.477l-1.539,5.162h-6.381L446.034,46.098z
			 M443.523,51.26h-8.849l-0.443-5.162h9.734L443.523,51.26z M442.911,58.38h-7.625l-0.436-5.068h8.496L442.911,58.38z
			 M457.249,45.783c-0.156,0.008-0.311,0.023-0.469,0.023c-2.029,0-3.903-0.658-5.432-1.76h-5.139l0.441-5.129h1.148
			c-0.203-0.761-0.322-1.557-0.322-2.381c0-0.416,0.037-0.823,0.09-1.226h-26.281l-1.846-6.221h-4.088h-6.792v3.282h7.767
			l2.921,9.845l5.636,19.087h27.336L457.249,45.783z"/>
	</defs>
	<clipPath id="SVGID_54_">
		<use xlink:href="#SVGID_53_"  overflow="visible"/>
	</clipPath>
	<rect x="403.561" y="24.089" clip-path="url(#SVGID_54_)" fill="#FFFFFF" width="58.688" height="42.214"/>
</g>
<g>
	<defs>
		<path id="SVGID_55_" d="M457.155,27.958v15.793c4.297,0,7.813-3.554,7.813-7.896C464.968,31.511,461.452,27.958,457.155,27.958z"
			/>
	</defs>
	<clipPath id="SVGID_56_">
		<use xlink:href="#SVGID_55_"  overflow="visible"/>
	</clipPath>
	<rect x="452.155" y="22.958" clip-path="url(#SVGID_56_)" fill="#5FBC6F" width="17.813" height="25.793"/>
</g>
<g>
	<defs>
		<path id="SVGID_57_" d="M449.342,35.854c0,4.343,3.517,7.896,7.813,7.896V27.958C452.858,27.958,449.342,31.511,449.342,35.854z"
			/>
	</defs>
	<clipPath id="SVGID_58_">
		<use xlink:href="#SVGID_57_"  overflow="visible"/>
	</clipPath>
	<rect x="444.342" y="22.958" clip-path="url(#SVGID_58_)" fill="#5FBC6F" width="17.813" height="25.793"/>
</g>
<g>
	<defs>
		<polygon id="SVGID_59_" points="461.452,32.696 457.155,37.039 457.155,39.506 462.722,33.88 		"/>
	</defs>
	<clipPath id="SVGID_60_">
		<use xlink:href="#SVGID_59_"  overflow="visible"/>
	</clipPath>
	<rect x="452.155" y="27.696" clip-path="url(#SVGID_60_)" fill="#EEEEEE" width="15.566" height="16.81"/>
</g>
<g>
	<defs>
		<polygon id="SVGID_61_" points="455.69,38.52 452.858,35.657 451.588,36.94 455.69,40.987 457.155,39.506 457.155,37.039 		"/>
	</defs>
	<clipPath id="SVGID_62_">
		<use xlink:href="#SVGID_61_"  overflow="visible"/>
	</clipPath>
	<rect x="446.588" y="30.657" clip-path="url(#SVGID_62_)" fill="#EEEEEE" width="15.567" height="15.33"/>
</g>
<g>
	<defs>
		<rect id="SVGID_63_" x="293.529" y="-56.844" width="125.587" height="131.281"/>
	</defs>
	<clipPath id="SVGID_64_">
		<use xlink:href="#SVGID_63_"  overflow="visible"/>
	</clipPath>
	<path clip-path="url(#SVGID_64_)" fill="#FFFFFF" d="M330.478,38.945c0,0.352-0.121,0.643-0.363,0.873s-0.539,0.346-0.891,0.346
		h-14.039c-0.352,0-0.648-0.115-0.891-0.346s-0.363-0.521-0.363-0.873c0-0.172,0.033-0.332,0.1-0.48s0.156-0.279,0.27-0.393
		s0.246-0.201,0.398-0.264s0.314-0.094,0.486-0.094h7.137v-1.723c0-0.211,0.039-0.41,0.117-0.598s0.186-0.35,0.322-0.486
		s0.297-0.246,0.48-0.328s0.381-0.123,0.592-0.123s0.408,0.041,0.592,0.123s0.344,0.191,0.48,0.328s0.244,0.299,0.322,0.486
		s0.117,0.387,0.117,0.598v1.723h2.109v-1.723c0-0.211,0.039-0.41,0.117-0.598s0.186-0.35,0.322-0.486s0.297-0.246,0.48-0.328
		s0.381-0.123,0.592-0.123s0.408,0.041,0.592,0.123s0.344,0.191,0.48,0.328s0.244,0.299,0.322,0.486s0.117,0.387,0.117,0.598V38.945
		z M330.62,57.063c0,0.75-0.09,1.434-0.27,2.051s-0.428,1.17-0.744,1.658s-0.693,0.912-1.131,1.271s-0.914,0.656-1.43,0.891
		s-1.061,0.41-1.635,0.527s-1.158,0.176-1.752,0.176c-0.914,0-1.797-0.141-2.648-0.422s-1.607-0.697-2.268-1.248
		s-1.189-1.236-1.588-2.057s-0.598-1.77-0.598-2.848c0-0.797,0.012-1.51,0.035-2.139s0.1-1.207,0.229-1.734s0.336-1.012,0.621-1.453
		s0.693-0.873,1.225-1.295c0.125-0.094,0.271-0.205,0.439-0.334s0.342-0.271,0.521-0.428s0.355-0.332,0.527-0.527
		s0.322-0.41,0.451-0.645s0.225-0.49,0.287-0.768s0.074-0.58,0.035-0.908c-0.07,0.148-0.189,0.291-0.357,0.428
		s-0.363,0.26-0.586,0.369s-0.465,0.197-0.727,0.264s-0.518,0.1-0.768,0.1c-0.258,0-0.574-0.033-0.949-0.1s-0.752-0.199-1.131-0.398
		s-0.73-0.482-1.055-0.85s-0.568-0.852-0.732-1.453c-0.055-0.195-0.07-0.395-0.047-0.598s0.08-0.389,0.17-0.557
		s0.209-0.316,0.357-0.445s0.324-0.225,0.527-0.287c0.195-0.063,0.391-0.088,0.586-0.076s0.379,0.061,0.551,0.146
		s0.322,0.207,0.451,0.363s0.229,0.344,0.299,0.563c0.109,0.344,0.297,0.629,0.563,0.855s0.609,0.34,1.031,0.34
		c0.406,0,0.748-0.105,1.025-0.316s0.482-0.492,0.615-0.844c0.117-0.32,0.316-0.582,0.598-0.785s0.602-0.305,0.961-0.305
		c0.227,0,0.439,0.043,0.639,0.129s0.373,0.203,0.521,0.352s0.266,0.324,0.352,0.527s0.129,0.418,0.129,0.645v2.414
		c0,0.445-0.072,0.838-0.217,1.178s-0.338,0.662-0.58,0.967s-0.523,0.605-0.844,0.902s-0.652,0.625-0.996,0.984
		c-0.328,0.336-0.592,0.711-0.791,1.125s-0.354,0.846-0.463,1.295s-0.184,0.902-0.223,1.359s-0.059,0.896-0.059,1.318
		c0,0.695,0.104,1.311,0.311,1.846s0.486,0.986,0.838,1.354s0.762,0.645,1.23,0.832s0.969,0.281,1.5,0.281
		c0.516,0,1.002-0.07,1.459-0.211s0.855-0.369,1.195-0.686s0.607-0.732,0.803-1.248s0.293-1.145,0.293-1.887v-1.289
		c0-0.695-0.049-1.27-0.146-1.723s-0.25-0.813-0.457-1.078s-0.471-0.457-0.791-0.574s-0.703-0.188-1.148-0.211
		c-0.188,0-0.361-0.031-0.521-0.094s-0.301-0.152-0.422-0.27s-0.217-0.258-0.287-0.422s-0.105-0.344-0.105-0.539
		c0-0.375,0.119-0.682,0.357-0.92s0.564-0.381,0.979-0.428c0.523-0.055,0.961-0.199,1.313-0.434s0.639-0.543,0.861-0.926
		s0.391-0.836,0.504-1.359s0.193-1.109,0.24-1.758c0.023-0.242,0.088-0.459,0.193-0.65s0.238-0.35,0.398-0.475
		s0.34-0.215,0.539-0.27s0.412-0.07,0.639-0.047c0.219,0.023,0.42,0.088,0.604,0.193s0.34,0.236,0.469,0.393
		s0.227,0.336,0.293,0.539s0.088,0.414,0.064,0.633c-0.063,0.648-0.168,1.271-0.316,1.869s-0.383,1.139-0.703,1.623
		s-0.746,0.896-1.277,1.236s-1.207,0.572-2.027,0.697c0.641,0.07,1.184,0.203,1.629,0.398s0.814,0.432,1.107,0.709
		s0.521,0.582,0.686,0.914s0.287,0.672,0.369,1.02s0.131,0.689,0.146,1.025s0.023,0.645,0.023,0.926V57.063z M330.923,27.836
		c0.07-0.18,0.17-0.338,0.299-0.475s0.275-0.242,0.439-0.316s0.338-0.115,0.521-0.123s0.369,0.023,0.557,0.094
		c0.18,0.07,0.334,0.168,0.463,0.293s0.229,0.268,0.299,0.428s0.109,0.332,0.117,0.516s-0.023,0.369-0.094,0.557
		c-0.203,0.508-0.504,0.982-0.902,1.424s-0.898,0.826-1.5,1.154s-1.303,0.586-2.104,0.773s-1.705,0.281-2.713,0.281h-1.406
		c-0.164,0-0.316-0.029-0.457-0.088s-0.266-0.141-0.375-0.246s-0.195-0.23-0.258-0.375s-0.094-0.299-0.094-0.463v-1.758h-0.738
		c-0.164,0-0.316-0.029-0.457-0.088s-0.266-0.141-0.375-0.246s-0.195-0.23-0.258-0.375s-0.094-0.299-0.094-0.463
		s0.031-0.318,0.094-0.463s0.148-0.27,0.258-0.375s0.234-0.189,0.375-0.252s0.293-0.094,0.457-0.094h2.238
		c0.164,0,0.316,0.031,0.457,0.094s0.266,0.146,0.375,0.252s0.195,0.23,0.258,0.375s0.094,0.299,0.094,0.463v1.746
		c1.219,0,2.203-0.193,2.953-0.58S330.626,28.563,330.923,27.836z M333.642,53.488c0-0.172,0.031-0.332,0.094-0.48
		s0.15-0.277,0.264-0.387s0.244-0.197,0.393-0.264s0.309-0.1,0.48-0.1h6.27c0.172,0,0.332,0.033,0.48,0.1s0.277,0.154,0.387,0.264
		s0.197,0.238,0.264,0.387s0.1,0.309,0.1,0.48s-0.033,0.332-0.1,0.48s-0.154,0.277-0.264,0.387s-0.238,0.195-0.387,0.258
		s-0.309,0.094-0.48,0.094h-4.184c0,0.922,0.125,1.764,0.375,2.525s0.604,1.414,1.061,1.957s1.004,0.963,1.641,1.26
		s1.338,0.445,2.104,0.445c0.82,0,1.557-0.168,2.209-0.504s1.207-0.824,1.664-1.465s0.807-1.428,1.049-2.361
		s0.363-2.002,0.363-3.205c0-1.219-0.111-2.301-0.334-3.246s-0.557-1.738-1.002-2.379s-1-1.127-1.664-1.459
		s-1.441-0.498-2.332-0.498c-0.578,0-1.121,0.066-1.629,0.199s-0.971,0.322-1.389,0.568s-0.777,0.547-1.078,0.902
		s-0.533,0.752-0.697,1.189c-0.172,0.469-0.438,0.807-0.797,1.014s-0.773,0.252-1.242,0.135c-0.234-0.055-0.436-0.15-0.604-0.287
		s-0.299-0.295-0.393-0.475s-0.146-0.377-0.158-0.592s0.025-0.428,0.111-0.639c0.289-0.734,0.67-1.396,1.143-1.986
		s1.035-1.094,1.688-1.512s1.398-0.738,2.238-0.961S341.06,43,342.091,43c1.57,0,2.902,0.266,3.996,0.797s1.982,1.262,2.666,2.191
		s1.178,2.025,1.482,3.287s0.457,2.623,0.457,4.084c0,0.914-0.068,1.801-0.205,2.66s-0.35,1.668-0.639,2.426s-0.66,1.451-1.113,2.08
		s-0.996,1.172-1.629,1.629s-1.361,0.811-2.186,1.061s-1.752,0.375-2.783,0.375c-1.039,0-1.971-0.125-2.795-0.375
		s-1.551-0.602-2.18-1.055s-1.166-0.992-1.611-1.617s-0.809-1.313-1.09-2.063s-0.488-1.547-0.621-2.391
		S333.642,54.379,333.642,53.488z M357.41,61.809c0,0.242-0.043,0.461-0.129,0.656s-0.201,0.361-0.346,0.498
		s-0.314,0.242-0.51,0.316c-0.195,0.074-0.402,0.111-0.621,0.111s-0.426-0.037-0.621-0.111c-0.195-0.075-0.365-0.178-0.51-0.311
		s-0.26-0.297-0.346-0.492s-0.129-0.418-0.129-0.668v-16.98c0-0.242,0.043-0.463,0.129-0.662s0.201-0.365,0.346-0.498
		s0.314-0.236,0.51-0.311s0.402-0.111,0.621-0.111s0.426,0.037,0.621,0.111s0.365,0.18,0.51,0.316s0.26,0.303,0.346,0.498
		s0.129,0.414,0.129,0.656V61.809z M374.368,52.984c-0.321,0.227-0.708,0.404-1.16,0.533c-0.453,0.129-0.943,0.234-1.471,0.316
		s-1.072,0.154-1.635,0.217s-1.115,0.143-1.658,0.24c-0.544,0.098-1.06,0.227-1.547,0.387c-0.488,0.16-0.916,0.375-1.283,0.645
		c-0.368,0.27-0.659,0.611-0.874,1.025c-0.215,0.414-0.322,0.922-0.322,1.523c0,0.633,0.142,1.152,0.428,1.559
		c0.285,0.406,0.655,0.721,1.108,0.943c0.452,0.223,0.959,0.363,1.518,0.422c0.558,0.059,1.111,0.061,1.658,0.006
		c0.171-0.023,0.34-0.014,0.504,0.029s0.311,0.115,0.439,0.217s0.235,0.227,0.322,0.375c0.086,0.148,0.136,0.32,0.152,0.516
		c0.016,0.188,0,0.363-0.047,0.527s-0.119,0.311-0.217,0.439c-0.099,0.129-0.217,0.238-0.357,0.328
		c-0.141,0.089-0.298,0.15-0.469,0.182c-0.298,0.063-0.591,0.107-0.879,0.135c-0.289,0.027-0.603,0.041-0.938,0.041
		c-0.875,0-1.705-0.098-2.491-0.293c-0.785-0.195-1.473-0.512-2.063-0.949c-0.59-0.438-1.059-1.002-1.406-1.693
		c-0.348-0.691-0.521-1.537-0.521-2.537c0-0.75,0.086-1.406,0.258-1.969c0.171-0.563,0.412-1.051,0.721-1.465
		c0.309-0.414,0.672-0.766,1.09-1.055c0.417-0.289,0.873-0.533,1.365-0.732s1.008-0.367,1.547-0.504s1.085-0.26,1.641-0.369
		c0.484-0.086,0.985-0.158,1.506-0.217c0.52-0.059,1.023-0.125,1.512-0.199c0.487-0.074,0.95-0.164,1.389-0.27
		c0.438-0.105,0.82-0.25,1.148-0.434s0.587-0.418,0.779-0.703c0.191-0.285,0.287-0.639,0.287-1.061c0-0.492-0.061-0.918-0.182-1.277
		c-0.122-0.359-0.286-0.664-0.492-0.914c-0.207-0.25-0.451-0.451-0.732-0.604s-0.585-0.271-0.908-0.357
		c-0.324-0.086-0.662-0.143-1.014-0.17s-0.699-0.041-1.043-0.041c-0.603,0-1.162,0.049-1.682,0.146
		c-0.521,0.098-0.983,0.258-1.389,0.48c-0.406,0.223-0.75,0.518-1.031,0.885s-0.485,0.82-0.609,1.359
		c-0.063,0.219-0.161,0.412-0.293,0.58c-0.133,0.168-0.292,0.305-0.475,0.41c-0.184,0.105-0.381,0.174-0.592,0.205
		s-0.426,0.016-0.645-0.047c-0.219-0.055-0.412-0.15-0.58-0.287c-0.168-0.137-0.305-0.295-0.41-0.475s-0.174-0.377-0.205-0.592
		c-0.031-0.215-0.016-0.432,0.047-0.65c0.242-0.867,0.621-1.6,1.137-2.197s1.131-1.082,1.846-1.453
		c0.715-0.371,1.51-0.639,2.385-0.803c0.874-0.164,1.788-0.246,2.742-0.246c0.578,0,1.158,0.035,1.74,0.105
		c0.581,0.07,1.144,0.191,1.688,0.363c0.543,0.172,1.049,0.398,1.518,0.68s0.879,0.633,1.23,1.055s0.627,0.922,0.826,1.5
		s0.299,1.246,0.299,2.004v13.008c0,0.242-0.043,0.461-0.129,0.656c-0.087,0.195-0.201,0.361-0.346,0.498
		c-0.146,0.137-0.315,0.242-0.51,0.316c-0.195,0.074-0.403,0.111-0.621,0.111c-0.219,0-0.427-0.037-0.621-0.111
		c-0.195-0.075-0.365-0.178-0.51-0.311c-0.146-0.133-0.26-0.297-0.346-0.492c-0.087-0.195-0.129-0.418-0.129-0.668V52.984z
		 M397.195,56.336c0,1.188-0.211,2.236-0.633,3.146s-0.994,1.674-1.717,2.291s-1.566,1.082-2.531,1.395
		c-0.965,0.312-1.994,0.469-3.088,0.469c-0.68,0-1.354-0.059-2.021-0.176s-1.303-0.293-1.904-0.527s-1.162-0.529-1.682-0.885
		s-0.967-0.775-1.342-1.26s-0.67-1.033-0.885-1.646s-0.322-1.291-0.322-2.033c0-0.555,0.045-1.072,0.135-1.553
		s0.24-0.92,0.451-1.318s0.488-0.748,0.832-1.049s0.77-0.545,1.277-0.732c-0.578-0.227-1.041-0.508-1.389-0.844
		s-0.615-0.697-0.803-1.084s-0.311-0.787-0.369-1.201s-0.088-0.813-0.088-1.195c0-0.617,0.078-1.16,0.234-1.629
		s0.367-0.875,0.633-1.219s0.572-0.631,0.92-0.861s0.717-0.416,1.107-0.557s0.787-0.24,1.189-0.299s0.787-0.088,1.154-0.088h1.594
		c0.188,0,0.361,0.035,0.521,0.105s0.303,0.168,0.428,0.293s0.223,0.268,0.293,0.428s0.105,0.334,0.105,0.521
		s-0.035,0.361-0.105,0.521s-0.168,0.301-0.293,0.422s-0.268,0.217-0.428,0.287s-0.334,0.105-0.521,0.105h-0.785
		c-0.203,0-0.459,0.014-0.768,0.041s-0.609,0.107-0.902,0.24s-0.543,0.342-0.75,0.627s-0.311,0.686-0.311,1.201
		c0,0.578,0.076,1.047,0.229,1.406s0.361,0.641,0.627,0.844s0.58,0.346,0.943,0.428s0.756,0.135,1.178,0.158h0.539
		c0.188,0,0.361,0.035,0.521,0.105s0.303,0.164,0.428,0.281s0.223,0.256,0.293,0.416s0.105,0.334,0.105,0.521
		s-0.035,0.361-0.105,0.521s-0.168,0.299-0.293,0.416s-0.268,0.209-0.428,0.275s-0.334,0.1-0.521,0.1h-0.539
		c-0.445,0.023-0.852,0.072-1.219,0.146s-0.68,0.221-0.938,0.439s-0.459,0.535-0.604,0.949s-0.217,0.977-0.217,1.688
		c0,0.656,0.133,1.23,0.398,1.723s0.619,0.902,1.061,1.23s0.951,0.572,1.529,0.732s1.18,0.24,1.805,0.24
		c0.695,0,1.334-0.092,1.916-0.275s1.084-0.482,1.506-0.896s0.75-0.953,0.984-1.617s0.352-1.477,0.352-2.438v-10.84
		c0-0.242,0.043-0.461,0.129-0.656s0.201-0.361,0.346-0.498s0.314-0.242,0.51-0.316s0.402-0.111,0.621-0.111
		s0.426,0.037,0.621,0.111s0.365,0.178,0.51,0.311s0.26,0.299,0.346,0.498s0.129,0.42,0.129,0.662V56.336z"/>
</g>
<g>
	<defs>
		<rect id="SVGID_65_" x="357.023" y="160.31" width="60.524" height="68.518"/>
	</defs>
	<clipPath id="SVGID_66_">
		<use xlink:href="#SVGID_65_"  overflow="visible"/>
	</clipPath>
	<rect x="352.023" y="155.31" clip-path="url(#SVGID_66_)" fill="#1E1E1E" width="70.524" height="78.518"/>
</g>
<g>
	<defs>
		<path id="SVGID_67_" d="M335.24,277.674c0-41.855,41.594-49.467,41.594-49.467h37.828c0,0,41.595,7.611,41.595,49.467H335.24z"/>
	</defs>
	<clipPath id="SVGID_68_">
		<use xlink:href="#SVGID_67_"  overflow="visible"/>
	</clipPath>
	<rect x="330.24" y="223.207" clip-path="url(#SVGID_68_)" fill="#6B798D" width="131.017" height="59.467"/>
</g>
<g>
	<defs>
		<path id="SVGID_69_" d="M447.778,270.682H326.761c0-41.854,41.594-49.467,41.594-49.467h37.828
			C406.184,221.215,447.778,228.828,447.778,270.682z"/>
	</defs>
	<clipPath id="SVGID_70_">
		<use xlink:href="#SVGID_69_"  overflow="visible"/>
	</clipPath>
	<rect x="321.761" y="216.215" clip-path="url(#SVGID_70_)" fill="#76C2AF" width="131.017" height="59.467"/>
</g>
<g>
	<defs>
		<path id="SVGID_71_" d="M387.253,244.053c-8.332,0-18.897-22.838-18.897-22.838v-22.84h37.828v22.84
			C406.184,221.215,395.585,244.053,387.253,244.053z"/>
	</defs>
	<clipPath id="SVGID_72_">
		<use xlink:href="#SVGID_71_"  overflow="visible"/>
	</clipPath>
	<rect x="363.355" y="193.375" clip-path="url(#SVGID_72_)" fill="#FF9800" width="47.828" height="55.678"/>
</g>
<g>
	<defs>
		<path id="SVGID_73_" d="M353.224,156.521v26.628c0,19.017,15.131,34.242,34.029,34.242c18.896,0,34.028-15.225,34.028-34.242
			c0.034-4.192,0.034-22.436,0.034-26.628C421.315,127.612,353.224,137.505,353.224,156.521z"/>
	</defs>
	<clipPath id="SVGID_74_">
		<use xlink:href="#SVGID_73_"  overflow="visible"/>
	</clipPath>
	<rect x="348.224" y="133.361" clip-path="url(#SVGID_74_)" fill="#FFB74D" width="78.091" height="89.03"/>
</g>
<g>
	<defs>
		<path id="SVGID_75_" d="M408.37,154.068l15.131,19.015v57.081l26.463-22.838c0-15.227-2.633-76.097-41.594-76.097l-3.767-7.613
			h-11.365C370.175,123.616,408.37,154.068,408.37,154.068z"/>
	</defs>
	<clipPath id="SVGID_76_">
		<use xlink:href="#SVGID_75_"  overflow="visible"/>
	</clipPath>
	<rect x="380.835" y="118.616" clip-path="url(#SVGID_76_)" fill="#6B798D" width="74.129" height="116.548"/>
</g>
<g>
	<defs>
		<path id="SVGID_77_" d="M330.527,207.129l26.463,17.875v-49.468l45.394-26.628l15.131,19.015v57.081l26.463-22.838
			c0-15.227-2.633-76.097-41.594-76.097l-3.766-7.613h-11.365C364.189,118.456,330.527,131.401,330.527,207.129z"/>
	</defs>
	<clipPath id="SVGID_78_">
		<use xlink:href="#SVGID_77_"  overflow="visible"/>
	</clipPath>
	<rect x="325.527" y="113.456" clip-path="url(#SVGID_78_)" fill="#424242" width="123.45" height="116.548"/>
</g>
<g>
	<defs>
		<path id="SVGID_79_" d="M387.253,247.844c-16.631,0-18.897-26.629-18.897-26.629s9.466,15.225,18.897,15.225
			c9.465,0,18.896-15.225,18.896-15.225S403.917,247.844,387.253,247.844z"/>
	</defs>
	<clipPath id="SVGID_80_">
		<use xlink:href="#SVGID_79_"  overflow="visible"/>
	</clipPath>
	<rect x="363.355" y="216.215" clip-path="url(#SVGID_80_)" fill="#FFB74D" width="47.794" height="36.629"/>
</g>
<g>
	<defs>
		<ellipse id="SVGID_81_" cx="402.384" cy="183.149" rx="3.766" ry="3.79"/>
	</defs>
	<clipPath id="SVGID_82_">
		<use xlink:href="#SVGID_81_"  overflow="visible"/>
	</clipPath>
	<rect x="393.618" y="174.36" clip-path="url(#SVGID_82_)" fill="#784719" width="17.531" height="17.579"/>
</g>
<g>
	<defs>
		<ellipse id="SVGID_83_" cx="372.155" cy="183.149" rx="3.766" ry="3.79"/>
	</defs>
	<clipPath id="SVGID_84_">
		<use xlink:href="#SVGID_83_"  overflow="visible"/>
	</clipPath>
	<rect x="363.389" y="174.36" clip-path="url(#SVGID_84_)" fill="#784719" width="17.532" height="17.579"/>
</g>
<g>
	<defs>
		<path id="SVGID_85_" d="M380.081,362.367c12.625,0,22.859,10.16,22.859,22.693v9.457c0,12.531-10.235,22.691-22.859,22.691
			h-22.409l-15.269,14.971c-2.921,2.873-5.315,1.873-5.315-2.207v-13.291c-10.273-2.23-17.97-11.301-17.97-22.164v-9.457
			c0-12.533,10.237-22.693,22.867-22.693H380.081z"/>
	</defs>
	<clipPath id="SVGID_86_">
		<use xlink:href="#SVGID_85_"  overflow="visible"/>
	</clipPath>
	<rect x="314.119" y="357.367" clip-path="url(#SVGID_86_)" fill="#6B798D" width="93.822" height="81.455"/>
</g>
<g>
	<defs>
		<path id="SVGID_87_" d="M374.04,357.357c12.625,0,22.859,10.16,22.859,22.695v9.457c0,12.531-10.234,22.691-22.859,22.691h-22.408
			l-15.27,14.971c-2.921,2.873-5.314,1.871-5.314-2.209v-13.291c-10.273-2.23-17.97-11.301-17.97-22.162v-9.457
			c0-12.535,10.237-22.695,22.867-22.695H374.04z"/>
	</defs>
	<clipPath id="SVGID_88_">
		<use xlink:href="#SVGID_87_"  overflow="visible"/>
	</clipPath>
	<rect x="308.079" y="352.357" clip-path="url(#SVGID_88_)" fill="#6FDAF1" width="93.821" height="81.455"/>
</g>
<g>
	<defs>
		<path id="SVGID_89_" d="M386.678,304.807c-19.009,0-34.42,15.303-34.42,34.164v14.236c0,18.865,15.412,34.162,34.42,34.162h25.456
			l22.979,22.541c4.41,4.324,8.016,2.824,8.016-3.326v-20.008c15.465-3.354,27.039-17.016,27.039-33.369v-14.234
			c0-18.865-15.412-34.166-34.414-34.166H386.678z"/>
	</defs>
	<clipPath id="SVGID_90_">
		<use xlink:href="#SVGID_89_"  overflow="visible"/>
	</clipPath>
	<rect x="347.257" y="299.807" clip-path="url(#SVGID_90_)" fill="#6B798D" width="127.91" height="117.576"/>
</g>
<g>
	<defs>
		<path id="SVGID_91_" d="M378.63,300.801c-19.008,0-34.419,15.301-34.419,34.164v14.234c0,18.865,15.412,34.162,34.419,34.162
			h25.457l22.979,22.541c4.41,4.326,8.016,2.826,8.016-3.324V382.57c15.465-3.354,27.039-17.016,27.039-33.369v-14.236
			c0-18.863-15.412-34.164-34.414-34.164H378.63z"/>
	</defs>
	<clipPath id="SVGID_92_">
		<use xlink:href="#SVGID_91_"  overflow="visible"/>
	</clipPath>
	<rect x="339.21" y="295.801" clip-path="url(#SVGID_92_)" fill="#FFFFFF" width="127.91" height="117.574"/>
</g>
<g>
	<defs>
		<path id="SVGID_93_" d="M363.148,342.482c0,4.625,3.778,8.377,8.435,8.377c4.66,0,8.438-3.752,8.438-8.377
			c0-4.627-3.777-8.373-8.438-8.373C366.927,334.109,363.148,337.857,363.148,342.482z"/>
	</defs>
	<clipPath id="SVGID_94_">
		<use xlink:href="#SVGID_93_"  overflow="visible"/>
	</clipPath>
	<rect x="358.148" y="329.109" clip-path="url(#SVGID_94_)" fill="#21B2D1" width="26.872" height="26.75"/>
</g>
<g>
	<defs>
		<ellipse id="SVGID_95_" cx="401.652" cy="342.482" rx="8.437" ry="8.377"/>
	</defs>
	<clipPath id="SVGID_96_">
		<use xlink:href="#SVGID_95_"  overflow="visible"/>
	</clipPath>
	<rect x="388.216" y="329.109" clip-path="url(#SVGID_96_)" fill="#21B2D1" width="26.873" height="26.75"/>
</g>
<g>
	<defs>
		<path id="SVGID_97_" d="M423.276,342.482c0,4.625,3.781,8.377,8.44,8.377s8.433-3.752,8.433-8.377
			c0-4.627-3.773-8.373-8.433-8.373S423.276,337.857,423.276,342.482z"/>
	</defs>
	<clipPath id="SVGID_98_">
		<use xlink:href="#SVGID_97_"  overflow="visible"/>
	</clipPath>
	<rect x="418.276" y="329.109" clip-path="url(#SVGID_98_)" fill="#21B2D1" width="26.873" height="26.75"/>
</g>
</svg>
