<?xml version="1.0" encoding="utf-8"?>
<!-- Generator: Adobe Illustrator 16.0.0, SVG Export Plug-In . SVG Version: 6.00 Build 0)  -->
<!DOCTYPE svg PUBLIC "-//W3C//DTD SVG 1.1//EN" "http://www.w3.org/Graphics/SVG/1.1/DTD/svg11.dtd">
<svg version="1.1" id="Layer_1" xmlns="http://www.w3.org/2000/svg" xmlns:xlink="http://www.w3.org/1999/xlink" x="0px" y="0px"
	 width="357.037px" height="503.511px" viewBox="0 0 357.037 503.511" enable-background="new 0 0 357.037 503.511"
	 xml:space="preserve">
<g>
	<defs>
		<circle id="SVGID_1_" cx="272" cy="257.635" r="80"/>
	</defs>
	<clipPath id="SVGID_2_">
		<use xlink:href="#SVGID_1_"  overflow="visible"/>
	</clipPath>
	<rect x="187" y="172.635" clip-path="url(#SVGID_2_)" fill="#166C7D" width="170" height="170"/>
</g>
<g>
	<defs>
		<circle id="SVGID_3_" cx="266" cy="250.635" r="80"/>
	</defs>
	<clipPath id="SVGID_4_">
		<use xlink:href="#SVGID_3_"  overflow="visible"/>
	</clipPath>
	<rect x="181" y="165.635" clip-path="url(#SVGID_4_)" fill="#25B7D3" width="170" height="170"/>
</g>
<g>
	<defs>
		<polygon id="SVGID_5_" points="262.611,291.842 252.909,301.545 252.909,286.998 		"/>
	</defs>
	<clipPath id="SVGID_6_">
		<use xlink:href="#SVGID_5_"  overflow="visible"/>
	</clipPath>
	<rect x="247.909" y="281.998" clip-path="url(#SVGID_6_)" fill="#166C7D" width="19.702" height="24.547"/>
</g>
<g>
	<defs>
		<polygon id="SVGID_7_" points="316.909,220.089 284.909,302.998 252.909,286.998 252.909,301.545 241.272,278.272 
			223.818,266.635 		"/>
	</defs>
	<clipPath id="SVGID_8_">
		<use xlink:href="#SVGID_7_"  overflow="visible"/>
	</clipPath>
	<rect x="218.818" y="215.089" clip-path="url(#SVGID_8_)" fill="#166C7D" width="103.091" height="92.909"/>
</g>
<g>
	<defs>
		<polygon id="SVGID_9_" points="258.247,281.66 248.545,291.363 248.545,276.817 		"/>
	</defs>
	<clipPath id="SVGID_10_">
		<use xlink:href="#SVGID_9_"  overflow="visible"/>
	</clipPath>
	<rect x="243.545" y="271.817" clip-path="url(#SVGID_10_)" fill="#CFD3D4" width="19.702" height="24.546"/>
</g>
<g>
	<defs>
		<polygon id="SVGID_11_" points="312.545,209.908 280.545,292.816 248.545,276.817 248.545,291.363 236.909,268.089 
			219.455,256.454 		"/>
	</defs>
	<clipPath id="SVGID_12_">
		<use xlink:href="#SVGID_11_"  overflow="visible"/>
	</clipPath>
	<rect x="214.455" y="204.908" clip-path="url(#SVGID_12_)" fill="#FFFFFF" width="103.091" height="92.909"/>
</g>
<g>
	<defs>
		<polygon id="SVGID_13_" points="236.909,268.089 248.545,291.363 248.545,276.817 312.545,209.908 		"/>
	</defs>
	<clipPath id="SVGID_14_">
		<use xlink:href="#SVGID_13_"  overflow="visible"/>
	</clipPath>
	<rect x="231.909" y="204.908" clip-path="url(#SVGID_14_)" fill="#E2E4E5" width="85.636" height="91.456"/>
</g>
<g>
	<defs>
		<circle id="SVGID_15_" cx="92" cy="97.635" r="80"/>
	</defs>
	<clipPath id="SVGID_16_">
		<use xlink:href="#SVGID_15_"  overflow="visible"/>
	</clipPath>
	<rect x="7" y="12.635" clip-path="url(#SVGID_16_)" fill="#8E313C" width="170" height="170"/>
</g>
<g>
	<defs>
		<circle id="SVGID_17_" cx="86" cy="90.635" r="80"/>
	</defs>
	<clipPath id="SVGID_18_">
		<use xlink:href="#SVGID_17_"  overflow="visible"/>
	</clipPath>
	<rect x="1" y="5.635" clip-path="url(#SVGID_18_)" fill="#E04F5F" width="170" height="170"/>
</g>
<g>
	<defs>
		<path id="SVGID_19_" d="M128.909,119.726C123.964,115.654,118,108.745,118,78.999c0,0,0-2.618-1.353-5.817
			c-2.124-5.077-7.651-11.637-21.92-11.637c-14.27,0-19.796,6.56-21.92,11.637c-1.353,3.199-1.353,5.817-1.353,5.817
			c0,29.746-5.964,36.655-10.909,40.728C57.011,122.635,54,124.104,54,131.363h40.728h40.727
			C135.455,124.104,132.444,122.635,128.909,119.726z"/>
	</defs>
	<clipPath id="SVGID_20_">
		<use xlink:href="#SVGID_19_"  overflow="visible"/>
	</clipPath>
	<rect x="49" y="56.544" clip-path="url(#SVGID_20_)" fill="#8E313C" width="91.455" height="79.818"/>
</g>
<g>
	<defs>
		<path id="SVGID_21_" d="M94.728,131.363H54c0-7.259,3.011-8.728,6.545-11.637c4.945-4.072,10.909-10.981,10.909-40.728
			c0,0,0-2.618,1.353-5.817c2.124-5.077,7.651-11.637,21.92-11.637V131.363z"/>
	</defs>
	<clipPath id="SVGID_22_">
		<use xlink:href="#SVGID_21_"  overflow="visible"/>
	</clipPath>
	<rect x="49" y="56.544" clip-path="url(#SVGID_22_)" fill="#8E313C" width="50.728" height="79.818"/>
</g>
<g>
	<defs>
		<circle id="SVGID_23_" cx="94.728" cy="55.726" r="5.818"/>
	</defs>
	<clipPath id="SVGID_24_">
		<use xlink:href="#SVGID_23_"  overflow="visible"/>
	</clipPath>
	<rect x="83.909" y="44.908" clip-path="url(#SVGID_24_)" fill="#8E313C" width="21.636" height="21.637"/>
</g>
<g>
	<defs>
		<path id="SVGID_25_" d="M71.477,78.541c0.103-1.454,0.529-3.463,1.331-5.359h21.92v5.817H71.455
			C71.455,78.999,71.455,78.836,71.477,78.541z"/>
	</defs>
	<clipPath id="SVGID_26_">
		<use xlink:href="#SVGID_25_"  overflow="visible"/>
	</clipPath>
	<rect x="66.455" y="68.181" clip-path="url(#SVGID_26_)" fill="#8E313C" width="33.273" height="15.817"/>
</g>
<g>
	<defs>
		<path id="SVGID_27_" d="M117.978,78.541c-0.103-1.454-0.529-3.463-1.331-5.359h-21.92v5.817H118
			C118,78.999,118,78.836,117.978,78.541z"/>
	</defs>
	<clipPath id="SVGID_28_">
		<use xlink:href="#SVGID_27_"  overflow="visible"/>
	</clipPath>
	<rect x="89.728" y="68.181" clip-path="url(#SVGID_28_)" fill="#8E313C" width="33.272" height="15.817"/>
</g>
<g>
	<defs>
		<path id="SVGID_29_" d="M128.909,119.726H94.728v11.637h40.727C135.455,124.104,132.444,122.635,128.909,119.726z"/>
	</defs>
	<clipPath id="SVGID_30_">
		<use xlink:href="#SVGID_29_"  overflow="visible"/>
	</clipPath>
	<rect x="89.728" y="114.726" clip-path="url(#SVGID_30_)" fill="#8E313C" width="50.727" height="21.637"/>
</g>
<g>
	<defs>
		<path id="SVGID_31_" d="M60.545,119.726h34.182v11.637H54C54,124.104,57.011,122.635,60.545,119.726z"/>
	</defs>
	<clipPath id="SVGID_32_">
		<use xlink:href="#SVGID_31_"  overflow="visible"/>
	</clipPath>
	<rect x="49" y="114.726" clip-path="url(#SVGID_32_)" fill="#8E313C" width="50.728" height="21.637"/>
</g>
<g>
	<defs>
		<path id="SVGID_33_" d="M94.728,142.999c6.426,0,11.636-5.21,11.636-11.636H83.091C83.091,137.789,88.301,142.999,94.728,142.999z
			"/>
	</defs>
	<clipPath id="SVGID_34_">
		<use xlink:href="#SVGID_33_"  overflow="visible"/>
	</clipPath>
	<rect x="78.091" y="126.363" clip-path="url(#SVGID_34_)" fill="#8E313C" width="33.273" height="21.636"/>
</g>
<g>
	<defs>
		<path id="SVGID_35_" d="M120.182,113.908c-4.945-4.072-10.909-10.981-10.909-40.727c0,0,0-2.618-1.353-5.818
			c-2.124-5.077-7.651-11.637-21.92-11.637s-19.796,6.56-21.92,11.637c-1.353,3.2-1.353,5.818-1.353,5.818
			c0,29.745-5.964,36.654-10.909,40.727c-3.535,2.909-6.545,4.378-6.545,11.637H86h40.728
			C126.728,118.286,123.716,116.817,120.182,113.908z"/>
	</defs>
	<clipPath id="SVGID_36_">
		<use xlink:href="#SVGID_35_"  overflow="visible"/>
	</clipPath>
	<rect x="40.273" y="50.726" clip-path="url(#SVGID_36_)" fill="#FACB1B" width="91.455" height="79.818"/>
</g>
<g>
	<defs>
		<path id="SVGID_37_" d="M86,125.544H45.273c0-7.259,3.011-8.728,6.545-11.637c4.945-4.072,10.909-10.981,10.909-40.727
			c0,0,0-2.618,1.353-5.818c2.124-5.077,7.651-11.637,21.92-11.637V125.544z"/>
	</defs>
	<clipPath id="SVGID_38_">
		<use xlink:href="#SVGID_37_"  overflow="visible"/>
	</clipPath>
	<rect x="40.273" y="50.726" clip-path="url(#SVGID_38_)" fill="#FBEC9A" width="50.727" height="79.818"/>
</g>
<g>
	<defs>
		<circle id="SVGID_39_" cx="86" cy="49.908" r="5.818"/>
	</defs>
	<clipPath id="SVGID_40_">
		<use xlink:href="#SVGID_39_"  overflow="visible"/>
	</clipPath>
	<rect x="75.182" y="39.089" clip-path="url(#SVGID_40_)" fill="#FBE158" width="21.637" height="21.637"/>
</g>
<g>
	<defs>
		<path id="SVGID_41_" d="M62.749,72.722c0.104-1.454,0.529-3.463,1.331-5.359H86v5.818H62.728
			C62.728,73.181,62.728,73.018,62.749,72.722z"/>
	</defs>
	<clipPath id="SVGID_42_">
		<use xlink:href="#SVGID_41_"  overflow="visible"/>
	</clipPath>
	<rect x="57.728" y="62.363" clip-path="url(#SVGID_42_)" fill="#FACB1B" width="33.272" height="15.818"/>
</g>
<g>
	<defs>
		<path id="SVGID_43_" d="M109.251,72.722c-0.104-1.454-0.529-3.463-1.331-5.359H86v5.818h23.273
			C109.273,73.181,109.273,73.018,109.251,72.722z"/>
	</defs>
	<clipPath id="SVGID_44_">
		<use xlink:href="#SVGID_43_"  overflow="visible"/>
	</clipPath>
	<rect x="81" y="62.363" clip-path="url(#SVGID_44_)" fill="#F3B607" width="33.273" height="15.818"/>
</g>
<g>
	<defs>
		<path id="SVGID_45_" d="M120.182,113.908H86v11.637h40.728C126.728,118.286,123.716,116.817,120.182,113.908z"/>
	</defs>
	<clipPath id="SVGID_46_">
		<use xlink:href="#SVGID_45_"  overflow="visible"/>
	</clipPath>
	<rect x="81" y="108.908" clip-path="url(#SVGID_46_)" fill="#F3B607" width="50.728" height="21.637"/>
</g>
<g>
	<defs>
		<path id="SVGID_47_" d="M51.818,113.908H86v11.637H45.273C45.273,118.286,48.284,116.817,51.818,113.908z"/>
	</defs>
	<clipPath id="SVGID_48_">
		<use xlink:href="#SVGID_47_"  overflow="visible"/>
	</clipPath>
	<rect x="40.273" y="108.908" clip-path="url(#SVGID_48_)" fill="#FACB1B" width="50.727" height="21.637"/>
</g>
<g>
	<defs>
		<path id="SVGID_49_" d="M86,137.181c6.426,0,11.636-5.211,11.636-11.637H74.364C74.364,131.97,79.574,137.181,86,137.181z"/>
	</defs>
	<clipPath id="SVGID_50_">
		<use xlink:href="#SVGID_49_"  overflow="visible"/>
	</clipPath>
	<rect x="69.364" y="120.544" clip-path="url(#SVGID_50_)" fill="#FBE158" width="33.272" height="21.637"/>
</g>
<g>
	<defs>
		<circle id="SVGID_51_" cx="92" cy="417.635" r="80"/>
	</defs>
	<clipPath id="SVGID_52_">
		<use xlink:href="#SVGID_51_"  overflow="visible"/>
	</clipPath>
	<rect x="7" y="332.635" clip-path="url(#SVGID_52_)" fill="#47745F" width="170" height="170"/>
</g>
<g>
	<defs>
		<circle id="SVGID_53_" cx="86" cy="410.635" r="80"/>
	</defs>
	<clipPath id="SVGID_54_">
		<use xlink:href="#SVGID_53_"  overflow="visible"/>
	</clipPath>
	<rect x="1" y="325.635" clip-path="url(#SVGID_54_)" fill="#7FCAA7" width="170" height="170"/>
</g>
<g>
	<defs>
		<path id="SVGID_55_" d="M57.533,376.391c0-2.895,2.374-5.24,5.302-5.24h38.876l22.089,18.338v63.746
			c0,2.895-2.373,5.24-5.301,5.24H62.835c-2.928,0-5.302-2.346-5.302-5.24V376.391z"/>
	</defs>
	<clipPath id="SVGID_56_">
		<use xlink:href="#SVGID_55_"  overflow="visible"/>
	</clipPath>
	<rect x="52.533" y="366.15" clip-path="url(#SVGID_56_)" fill="#47745F" width="76.267" height="97.324"/>
</g>
<g>
	<defs>
		<path id="SVGID_57_" d="M51,370.875c0-2.895,2.373-5.24,5.301-5.24h38.876l22.089,18.338v63.746c0,2.895-2.373,5.24-5.301,5.24
			H56.301c-2.928,0-5.301-2.346-5.301-5.24V370.875z"/>
	</defs>
	<clipPath id="SVGID_58_">
		<use xlink:href="#SVGID_57_"  overflow="visible"/>
	</clipPath>
	<rect x="46" y="360.635" clip-path="url(#SVGID_58_)" fill="#FFFFFF" width="76.267" height="97.324"/>
</g>
<g>
	<defs>
		<path id="SVGID_59_" d="M95.178,365.635v13.1c0,2.893,2.373,5.238,5.301,5.238h16.788L95.178,365.635z"/>
	</defs>
	<clipPath id="SVGID_60_">
		<use xlink:href="#SVGID_59_"  overflow="visible"/>
	</clipPath>
	<rect x="90.178" y="360.635" clip-path="url(#SVGID_60_)" fill="#F0F1F1" width="32.089" height="28.338"/>
</g>
<g>
	<defs>
		<path id="SVGID_61_" d="M104.842,395.652c0,0.75-0.622,1.365-1.381,1.365H82.753c-0.759,0-1.381-0.615-1.381-1.365
			s0.622-1.363,1.381-1.363h20.708C104.22,394.289,104.842,394.902,104.842,395.652z"/>
	</defs>
	<clipPath id="SVGID_62_">
		<use xlink:href="#SVGID_61_"  overflow="visible"/>
	</clipPath>
	<rect x="76.372" y="389.289" clip-path="url(#SVGID_62_)" fill="#E2E4E5" width="33.47" height="12.729"/>
</g>
<g>
	<defs>
		<path id="SVGID_63_" d="M96.558,402.475c0,0.75-0.621,1.365-1.38,1.365H82.753c-0.759,0-1.381-0.615-1.381-1.365
			s0.622-1.365,1.381-1.365h12.425C95.937,401.109,96.558,401.725,96.558,402.475z"/>
	</defs>
	<clipPath id="SVGID_64_">
		<use xlink:href="#SVGID_63_"  overflow="visible"/>
	</clipPath>
	<rect x="76.372" y="396.109" clip-path="url(#SVGID_64_)" fill="#E2E4E5" width="25.186" height="12.73"/>
</g>
<g>
	<defs>
		<path id="SVGID_65_" d="M104.842,413.391c0,0.75-0.622,1.363-1.381,1.363H82.753c-0.759,0-1.381-0.613-1.381-1.363
			s0.622-1.365,1.381-1.365h20.708C104.22,412.025,104.842,412.641,104.842,413.391z"/>
	</defs>
	<clipPath id="SVGID_66_">
		<use xlink:href="#SVGID_65_"  overflow="visible"/>
	</clipPath>
	<rect x="76.372" y="407.025" clip-path="url(#SVGID_66_)" fill="#E2E4E5" width="33.47" height="12.729"/>
</g>
<g>
	<defs>
		<path id="SVGID_67_" d="M96.558,420.213c0,0.75-0.621,1.363-1.38,1.363H82.753c-0.759,0-1.381-0.613-1.381-1.363
			c0-0.752,0.622-1.365,1.381-1.365h12.425C95.937,418.848,96.558,419.461,96.558,420.213z"/>
	</defs>
	<clipPath id="SVGID_68_">
		<use xlink:href="#SVGID_67_"  overflow="visible"/>
	</clipPath>
	<rect x="76.372" y="413.848" clip-path="url(#SVGID_68_)" fill="#E2E4E5" width="25.186" height="12.729"/>
</g>
<g>
	<defs>
		<path id="SVGID_69_" d="M104.842,431.127c0,0.752-0.622,1.365-1.381,1.365H82.753c-0.759,0-1.381-0.613-1.381-1.365
			c0-0.75,0.622-1.363,1.381-1.363h20.708C104.22,429.764,104.842,430.377,104.842,431.127z"/>
	</defs>
	<clipPath id="SVGID_70_">
		<use xlink:href="#SVGID_69_"  overflow="visible"/>
	</clipPath>
	<rect x="76.372" y="424.764" clip-path="url(#SVGID_70_)" fill="#E2E4E5" width="33.47" height="12.729"/>
</g>
<g>
	<defs>
		<path id="SVGID_71_" d="M96.558,437.949c0,0.752-0.621,1.365-1.38,1.365H82.753c-0.759,0-1.381-0.613-1.381-1.365
			c0-0.75,0.622-1.363,1.381-1.363h12.425C95.937,436.586,96.558,437.199,96.558,437.949z"/>
	</defs>
	<clipPath id="SVGID_72_">
		<use xlink:href="#SVGID_71_"  overflow="visible"/>
	</clipPath>
	<rect x="76.372" y="431.586" clip-path="url(#SVGID_72_)" fill="#E2E4E5" width="25.186" height="12.729"/>
</g>
<g>
	<defs>
		<path id="SVGID_73_" d="M67.659,405.203l-5.21-5.148c-0.54-0.533-0.54-1.398,0-1.93c0.54-0.533,1.414-0.533,1.953,0l3.073,3.037
			l5.935-7.039c0.489-0.58,1.358-0.658,1.944-0.174c0.585,0.482,0.666,1.342,0.177,1.92L67.659,405.203z"/>
	</defs>
	<clipPath id="SVGID_74_">
		<use xlink:href="#SVGID_73_"  overflow="visible"/>
	</clipPath>
	<rect x="57.044" y="388.631" clip-path="url(#SVGID_74_)" fill="#17B198" width="23.806" height="21.572"/>
</g>
<g>
	<defs>
		<path id="SVGID_75_" d="M67.659,422.941l-5.21-5.15c-0.54-0.531-0.54-1.396,0-1.928c0.54-0.535,1.414-0.535,1.953,0l3.073,3.037
			l5.935-7.039c0.489-0.58,1.358-0.658,1.944-0.176s0.666,1.344,0.177,1.922L67.659,422.941z"/>
	</defs>
	<clipPath id="SVGID_76_">
		<use xlink:href="#SVGID_75_"  overflow="visible"/>
	</clipPath>
	<rect x="57.044" y="406.369" clip-path="url(#SVGID_76_)" fill="#17B198" width="23.806" height="21.572"/>
</g>
<g>
	<defs>
		<path id="SVGID_77_" d="M67.659,440.678l-5.21-5.148c-0.54-0.531-0.54-1.396,0-1.93c0.54-0.533,1.414-0.533,1.953,0l3.073,3.037
			l5.935-7.039c0.489-0.58,1.358-0.656,1.944-0.174s0.666,1.342,0.177,1.92L67.659,440.678z"/>
	</defs>
	<clipPath id="SVGID_78_">
		<use xlink:href="#SVGID_77_"  overflow="visible"/>
	</clipPath>
	<rect x="57.044" y="424.107" clip-path="url(#SVGID_78_)" fill="#17B198" width="23.806" height="21.57"/>
</g>
</svg>
